<svg xmlns="http://www.w3.org/2000/svg" xmlns:xlink="http://www.w3.org/1999/xlink" preserveAspectRatio="xMidYMid" width="13.32" height="13.31" viewBox="0 0 13.32 13.31">
  <defs>
    <style>
      .cls-1 {
        fill: #aeb0b5;
        fill-rule: evenodd;
      }
    </style>
  </defs>
  <path d="M1.134,1.132 C0.404,1.862 0.029,2.768 0.009,3.851 L0.009,9.476 C0.029,10.560 0.404,11.466 1.134,12.195 C1.863,12.924 2.769,13.299 3.853,13.320 L9.478,13.320 C10.561,13.299 11.467,12.924 12.196,12.195 C12.925,11.466 13.300,10.560 13.321,9.476 L13.321,3.851 C13.300,2.768 12.925,1.862 12.196,1.132 C11.467,0.404 10.561,0.029 9.478,0.007 L3.853,0.007 C2.769,0.029 1.863,0.404 1.134,1.132 ZM9.603,1.320 C10.290,1.341 10.857,1.575 11.306,2.023 C11.753,2.471 11.988,3.039 12.009,3.726 L12.009,9.601 C11.988,10.288 11.753,10.856 11.306,11.304 C10.857,11.752 10.290,11.987 9.603,12.007 L3.728,12.007 C3.040,11.987 2.472,11.752 2.024,11.304 C1.576,10.856 1.342,10.288 1.321,9.601 L1.321,3.726 C1.342,3.039 1.576,2.471 2.024,2.023 C2.472,1.575 3.040,1.341 3.728,1.320 L9.603,1.320 ZM9.587,2.586 C9.431,2.742 9.353,2.935 9.353,3.164 C9.353,3.393 9.431,3.586 9.587,3.742 C9.743,3.898 9.936,3.976 10.165,3.976 C10.394,3.976 10.587,3.898 10.743,3.742 C10.899,3.586 10.978,3.393 10.978,3.164 C10.978,2.935 10.899,2.742 10.743,2.586 C10.587,2.429 10.394,2.341 10.165,2.320 C9.936,2.341 9.743,2.429 9.587,2.586 ZM4.306,4.304 C3.670,4.940 3.342,5.726 3.321,6.664 C3.342,7.601 3.670,8.388 4.306,9.023 C4.941,9.659 5.728,9.987 6.665,10.007 C7.603,9.987 8.389,9.659 9.024,9.023 C9.660,8.388 9.988,7.601 10.009,6.664 C9.988,5.726 9.660,4.940 9.024,4.304 C8.389,3.669 7.603,3.341 6.665,3.320 C5.728,3.341 4.941,3.669 4.306,4.304 ZM8.071,5.258 C8.446,5.633 8.634,6.101 8.634,6.664 C8.634,7.226 8.446,7.695 8.071,8.070 C7.696,8.445 7.228,8.632 6.665,8.632 C6.103,8.632 5.634,8.445 5.259,8.070 C4.884,7.695 4.696,7.226 4.696,6.664 C4.696,6.101 4.884,5.633 5.259,5.258 C5.634,4.883 6.103,4.685 6.665,4.664 C7.228,4.685 7.696,4.883 8.071,5.258 Z" class="cls-1"/>
</svg>
