<svg xmlns="http://www.w3.org/2000/svg" xmlns:xlink="http://www.w3.org/1999/xlink" preserveAspectRatio="xMidYMid" width="22.15" height="23.156" viewBox="0 0 22.15 23.156">
  <defs>
    <style>
      .cls-1 {
        fill: #fff;
        fill-rule: evenodd;
      }
    </style>
  </defs>
  <path d="M16.098,14.210 C17.991,12.751 19.212,10.494 19.212,7.954 C19.212,3.556 15.564,-0.010 11.066,-0.010 C6.567,-0.010 2.919,3.556 2.919,7.954 C2.919,10.494 4.140,12.751 6.034,14.210 C2.638,15.901 0.248,19.244 -0.016,23.160 L1.467,23.160 C1.753,19.493 4.191,16.420 7.546,15.129 C8.613,15.630 9.804,15.919 11.066,15.919 C12.328,15.919 13.518,15.630 14.585,15.129 C17.940,16.420 20.378,19.493 20.664,23.160 L22.147,23.160 C21.884,19.244 19.493,15.901 16.098,14.210 ZM11.066,14.471 C7.384,14.471 4.401,11.554 4.401,7.954 C4.401,4.354 7.384,1.437 11.066,1.437 C14.747,1.437 17.731,4.354 17.731,7.954 C17.731,11.554 14.747,14.471 11.066,14.471 Z" class="cls-1"/>
</svg>
