<svg xmlns="http://www.w3.org/2000/svg" xmlns:xlink="http://www.w3.org/1999/xlink" preserveAspectRatio="xMidYMid" width="18.157" height="19.156" viewBox="0 0 18.157 19.156">
  <defs>
    <style>
      .cls-1 {
        fill: #fff;
        fill-rule: evenodd;
      }
    </style>
  </defs>
  <path d="M12.609,12.499 C13.804,11.174 14.549,9.401 14.549,7.447 C14.549,3.349 11.293,0.004 7.281,0.004 C3.269,0.004 0.014,3.349 0.014,7.447 C0.014,11.545 3.269,14.890 7.281,14.890 C8.915,14.890 10.416,14.341 11.633,13.409 L17.037,18.943 C17.169,19.078 17.333,19.145 17.498,19.145 C17.662,19.145 17.838,19.078 17.958,18.943 C18.210,18.685 18.210,18.258 17.958,17.989 L12.609,12.499 ZM1.329,7.447 C1.329,4.090 3.993,1.351 7.281,1.351 C10.559,1.351 13.234,4.079 13.234,7.447 C13.234,10.815 10.570,13.543 7.281,13.543 C3.993,13.543 1.329,10.804 1.329,7.447 Z" class="cls-1"/>
</svg>
