<svg xmlns="http://www.w3.org/2000/svg" xmlns:xlink="http://www.w3.org/1999/xlink" preserveAspectRatio="xMidYMid" width="10.32" height="12" viewBox="0 0 10.32 12">
  <defs>
    <style>
      .cls-1 {
        fill: #aeb0b5;
        fill-rule: evenodd;
      }
    </style>
  </defs>
  <path d="M9.290,8.061 C9.998,7.154 10.342,6.128 10.321,4.982 C10.300,3.566 9.800,2.394 8.821,1.467 C7.842,0.540 6.623,0.056 5.165,0.014 C3.707,0.056 2.488,0.540 1.509,1.467 C0.529,2.394 0.029,3.566 0.009,4.982 C0.009,5.857 0.228,6.670 0.665,7.420 C0.853,7.691 1.092,7.837 1.384,7.857 C1.634,7.837 1.837,7.748 1.993,7.592 C2.149,7.436 2.228,7.243 2.228,7.014 C2.228,6.868 2.196,6.722 2.134,6.576 C1.821,6.076 1.665,5.545 1.665,4.982 C1.686,4.045 2.024,3.264 2.681,2.638 C3.337,2.013 4.165,1.691 5.165,1.670 C6.144,1.691 6.967,2.013 7.634,2.638 C8.300,3.264 8.644,4.045 8.665,4.982 C8.686,5.691 8.493,6.332 8.087,6.904 C7.681,7.478 6.998,7.774 6.040,7.795 C5.707,7.795 5.436,7.691 5.228,7.482 C5.019,7.274 4.915,7.003 4.915,6.670 C4.936,6.295 5.056,5.925 5.274,5.561 C5.493,5.196 5.623,4.743 5.665,4.201 C5.644,3.764 5.519,3.467 5.290,3.310 C5.061,3.154 4.785,3.076 4.462,3.076 C4.139,3.076 3.832,3.212 3.540,3.483 C3.248,3.754 3.092,4.243 3.071,4.951 C3.092,5.326 3.123,5.628 3.165,5.857 L3.259,6.201 L1.665,10.982 L1.665,11.107 C1.665,11.357 1.753,11.571 1.931,11.748 C2.107,11.925 2.321,12.014 2.571,12.014 C2.925,12.014 3.186,11.868 3.353,11.576 L3.384,11.576 L4.228,8.733 C4.707,9.233 5.300,9.493 6.009,9.514 L6.009,9.514 C7.488,9.451 8.582,8.967 9.290,8.061 Z" class="cls-1"/>
</svg>
